HIERARCHY
ROOT Hips
{
	OFFSET 0.000000 0.000000 0.000000
	CHANNELS 6 Xposition Yposition Zposition Xrotation Yrotation Zrotation
	JOINT LeftUpLeg_virtual
	{
		OFFSET 0.000000 0.000000 0.000000
		CHANNELS 3 Xrotation Yrotation Zrotation
		JOINT LeftUpLeg
		{
			OFFSET 13.026900 -6.336304 -1.092800
			CHANNELS 3 Xrotation Yrotation Zrotation
			JOINT LeftLeg
			{
				OFFSET 0.524474 -46.096886 9.782700
				CHANNELS 3 Xrotation Yrotation Zrotation
				JOINT LeftFoot
				{
					OFFSET -0.524474 -53.427422 -12.948200
					CHANNELS 3 Xrotation Yrotation Zrotation
					JOINT LeftToeBase
					{
						OFFSET 0.192200 -14.009700 16.364100
						CHANNELS 3 Xrotation Yrotation Zrotation
						JOINT LeftToe_End
						{
							OFFSET -1.784700 -0.561700 9.474800
							CHANNELS 3 Xrotation Yrotation Zrotation
							End Site
							{
								OFFSET 0 0 0
							}
						}
					}
				}
			}
		}
	}
	JOINT RightUpLeg_virtual
	{
		OFFSET 0.000000 0.000000 0.000000
		CHANNELS 3 Xrotation Yrotation Zrotation
		JOINT RightUpLeg
		{
			OFFSET -12.883000 -6.336304 -1.092800
			CHANNELS 3 Xrotation Yrotation Zrotation
			JOINT RightLeg
			{
				OFFSET -0.524587 -46.096825 9.782800
				CHANNELS 3 Xrotation Yrotation Zrotation
				JOINT RightFoot
				{
					OFFSET 0.524587 -53.427383 -12.948300
					CHANNELS 3 Xrotation Yrotation Zrotation
					JOINT RightToeBase
					{
						OFFSET -0.192200 -14.009700 16.364100
						CHANNELS 3 Xrotation Yrotation Zrotation
						JOINT RightToe_End
						{
							OFFSET 1.784700 -0.561700 9.474800
							CHANNELS 3 Xrotation Yrotation Zrotation
							End Site
							{
								OFFSET 0 0 0
							}
						}
					}
				}
			}
		}
	}
	JOINT Spine_virtual
	{
		OFFSET 0.000000 0.000000 0.000000
		CHANNELS 3 Xrotation Yrotation Zrotation
		JOINT Spine
		{
			OFFSET 0.072000 7.257294 -0.789700
			CHANNELS 3 Xrotation Yrotation Zrotation
			JOINT Spine1
			{
				OFFSET 0.000000 12.508769 -0.658067
				CHANNELS 3 Xrotation Yrotation Zrotation
				JOINT Spine1_split
				{
					OFFSET 0.000000 12.508769 -0.658067
					CHANNELS 3 Xrotation Yrotation Zrotation
					JOINT Spine2
					{
						OFFSET 0.000000 12.508769 -0.658067
						CHANNELS 3 Xrotation Yrotation Zrotation
						JOINT Neck_virtual
						{
							OFFSET 0.000000 0.000000 0.000000
							CHANNELS 3 Xrotation Yrotation Zrotation
							JOINT Neck
							{
								OFFSET 0.000000 14.033295 7.520400
								CHANNELS 3 Xrotation Yrotation Zrotation
								JOINT Head
								{
									OFFSET 0.000000 8.198502 5.703100
									CHANNELS 3 Xrotation Yrotation Zrotation
									JOINT HeadTop_End
									{
										OFFSET 0.000000 17.760803 13.332701
										CHANNELS 3 Xrotation Yrotation Zrotation
										End Site
										{
											OFFSET 0 0 0
										}
									}
								}
							}
						}
						JOINT LeftShoulder_virtual
						{
							OFFSET 0.000000 0.000000 0.000000
							CHANNELS 3 Xrotation Yrotation Zrotation
							JOINT LeftShoulder
							{
								OFFSET 6.292450 5.785301 -0.669000
								CHANNELS 3 Xrotation Yrotation Zrotation
								JOINT LeftShoulder_split
								{
									OFFSET 6.292450 5.785301 -0.669000
									CHANNELS 3 Xrotation Yrotation Zrotation
									JOINT LeftArm
									{
										OFFSET 13.907140 -6.093903 1.965100
										CHANNELS 3 Xrotation Yrotation Zrotation
										JOINT LeftForeArm
										{
											OFFSET 34.140198 0.000000 0.000000
											CHANNELS 3 Xrotation Yrotation Zrotation
											JOINT LeftHand
											{
												OFFSET 40.960209 0.000000 0.000000
												CHANNELS 3 Xrotation Yrotation Zrotation
												End Site
												{
													OFFSET 0 0 0
												}
											}
										}
									}
								}
							}
						}
						JOINT RightShoulder_virtual
						{
							OFFSET 0.000000 0.000000 0.000000
							CHANNELS 3 Xrotation Yrotation Zrotation
							JOINT RightShoulder
							{
								OFFSET -6.292450 5.785301 -0.669000
								CHANNELS 3 Xrotation Yrotation Zrotation
								JOINT RightShoulder_split
								{
									OFFSET -6.292450 5.785301 -0.669000
									CHANNELS 3 Xrotation Yrotation Zrotation
									JOINT RightArm
									{
										OFFSET -13.907140 -6.093903 1.965100
										CHANNELS 3 Xrotation Yrotation Zrotation
										JOINT RightForeArm
										{
											OFFSET -34.140198 0.000000 0.000000
											CHANNELS 3 Xrotation Yrotation Zrotation
											JOINT RightHand
											{
												OFFSET -40.960209 0.000000 0.000000
												CHANNELS 3 Xrotation Yrotation Zrotation
												End Site
												{
													OFFSET 0 0 0
												}
											}
										}
									}
								}
							}
						}
					}
				}
			}
		}
	}
}
MOTION
Frames: 5
Frame Time: 0.03333333
1.113470 91.138138 -9.366201 0.000000 0.000000 0.000000 3.807727 -77.699699 4.497936 -43.547121 17.574546 46.899747 31.647258 -16.164997 -0.117335 15.992663 16.620558 -35.602522 -0.972728 -5.061412 -3.813425 0.000000 0.000000 0.000000 2.818932 -78.079868 3.343543 -35.216814 5.118128 -19.475014 47.191133 16.847575 -8.241002 -11.121139 -9.379275 32.211124 0.548113 5.665316 -6.846867 0.000000 0.000000 0.000000 5.076632 -72.990058 4.519955 0.186092 4.401518 2.064987 5.171018 0.086116 -2.899062 0.180196 -0.872179 0.198269 0.000000 0.000000 0.000000 10.482941 1.772618 -1.702288 -14.120573 22.480359 10.747987 16.534730 -9.983588 -10.960192 0.000000 0.000000 0.000000 9.869003 -0.216361 -1.427867 4.464970 -0.860257 -6.368868 4.481027 -7.503969 -3.606235 -64.154444 -14.377410 -14.057536 9.108593 -11.834674 13.058981 0.000000 0.000000 0.000000 6.509486 -0.709481 -1.799773 -5.191301 16.668824 2.657921 13.239121 -0.141927 8.103282 -12.389507 68.705604 25.018667 112.752578 76.771886 -112.461284 0.000000 0.000000 0.000000 
1.157288 91.107956 -9.336657 0.000000 0.000000 0.000000 5.367391 -77.669537 5.752423 -42.761707 17.403940 46.912044 32.218863 -16.660168 0.016152 15.249787 16.774893 -35.268419 -1.256414 -5.103184 -3.680540 0.000000 0.000000 0.000000 3.240105 -77.649757 3.735714 -35.656384 5.305187 -19.499148 46.691542 16.924640 -7.991761 -10.840904 -9.356184 32.242615 0.142086 5.770026 -6.849016 0.000000 0.000000 0.000000 5.668626 -73.007216 5.335401 -0.330819 4.276183 2.069355 4.776937 -0.036769 -2.847886 0.100430 -0.749997 0.205636 0.000000 0.000000 0.000000 10.210469 1.504628 -1.387965 -13.210061 22.780542 10.591815 16.523648 -10.390928 -12.221149 0.000000 0.000000 0.000000 9.089084 -0.278695 -1.463061 4.504709 0.100848 -8.242024 5.224182 -6.750753 -3.093339 -63.500118 -14.218624 -15.388607 10.193116 -12.049044 13.731983 0.000000 0.000000 0.000000 6.081124 -0.876981 -1.863707 -5.401139 16.467166 2.601968 13.355814 -2.184085 7.321675 -13.836224 68.552211 27.169422 115.373288 76.968145 -115.369845 0.000000 0.000000 0.000000 
1.018823 91.428474 -9.373358 0.000000 0.000000 0.000000 7.402462 -77.887748 7.602533 -41.739750 17.229499 46.702081 32.408944 -16.711800 0.133468 15.098376 17.348460 -35.420702 -1.534676 -5.077850 -3.757259 0.000000 0.000000 0.000000 4.562325 -77.497116 5.043057 -36.436488 5.262520 -19.623859 46.034136 16.998377 -7.646760 -10.294494 -8.775582 31.887916 0.635762 5.902443 -7.051237 0.000000 0.000000 0.000000 6.276012 -73.464784 6.093301 -0.944759 4.235592 2.055945 4.522165 -0.194275 -2.644809 0.110571 -0.657136 0.169147 0.000000 0.000000 0.000000 9.953439 1.177348 -0.943121 -12.110994 23.046035 10.448694 14.445606 -9.082953 -15.052052 0.000000 0.000000 0.000000 8.097953 -0.400246 -1.426080 4.370183 0.620414 -10.842423 5.688341 -6.343779 -1.553996 -60.803239 -13.314774 -17.329138 10.802129 -13.691366 13.821695 0.000000 0.000000 0.000000 5.706826 -1.044732 -1.710393 -5.737852 15.124129 2.582058 12.469358 -3.027886 6.464681 -12.775693 68.415341 27.916407 110.126862 78.073024 -110.059353 0.000000 0.000000 0.000000 
0.732372 92.163055 -9.388510 0.000000 0.000000 0.000000 9.297685 -78.266994 9.514115 -40.165634 17.256666 45.989105 31.591322 -16.174769 0.138927 15.303450 18.397704 -35.776534 -1.956136 -4.997069 -3.931522 0.000000 0.000000 0.000000 6.156004 -77.563143 6.724863 -37.156957 4.961464 -19.867699 45.284837 16.897014 -7.274688 -9.662206 -7.892169 31.329668 1.759689 6.038379 -7.402784 0.000000 0.000000 0.000000 6.807137 -74.129300 6.686809 -1.411245 4.267931 2.020898 4.412667 -0.398358 -2.310949 0.167008 -0.595595 0.134066 0.000000 0.000000 0.000000 9.652481 0.819556 -0.478234 -10.948056 23.183771 10.230931 10.918831 -6.318320 -18.724253 0.000000 0.000000 0.000000 7.194147 -0.581187 -1.364119 4.158013 0.378363 -13.779855 6.091162 -6.385399 0.608946 -56.331504 -12.319186 -19.882766 11.330110 -17.743655 13.702662 0.000000 0.000000 0.000000 5.453784 -1.201950 -1.399532 -6.174854 12.871684 2.894621 11.091835 -2.256099 5.600042 -10.069768 68.032598 28.175029 94.373065 79.522854 -93.825305 0.000000 0.000000 0.000000 
0.298527 93.294754 -9.255968 0.000000 0.000000 0.000000 10.585633 -78.454073 11.011652 -37.842260 17.568008 44.605671 29.823215 -15.153903 0.220972 15.527687 19.920737 -36.134160 -2.278468 -4.887134 -4.171555 0.000000 0.000000 0.000000 7.188698 -77.636937 8.084888 -37.402167 4.396732 -20.207746 44.353787 16.538810 -6.936846 -8.813720 -6.959367 30.952030 2.220214 6.215348 -7.803696 0.000000 0.000000 0.000000 6.669013 -74.686561 6.615606 -1.526673 4.316573 1.978533 4.443729 -0.674992 -1.888378 0.202464 -0.593143 0.122080 0.000000 0.000000 0.000000 9.266876 0.451185 -0.069514 -9.701997 23.175658 9.849689 6.945935 -2.709846 -22.292624 0.000000 0.000000 0.000000 6.565066 -0.834702 -1.329528 3.825425 -0.865937 -16.504160 7.373943 -6.492126 2.588746 -50.217265 -11.897812 -22.694282 12.232487 -24.273900 13.747186 0.000000 0.000000 0.000000 5.374373 -1.346987 -1.008869 -6.660005 9.950575 3.684682 9.599479 -0.561521 4.870526 -6.805548 67.390239 28.458294 64.330205 79.327566 -62.932113 0.000000 0.000000 0.000000 
